<svg width="1200" height="630" viewBox="0 0 1200 630" role="img" xmlns="http://www.w3.org/2000/svg">
  <title>CalculetteImmo — Vos outils de calcul immobilier</title>
  <desc>Image Open Graph pour le partage sur les réseaux sociaux</desc>

  <defs>
    <linearGradient id="goldLine" x1="0" y1="0" x2="1" y2="0">
      <stop offset="0%" stop-color="#C9A84C" stop-opacity="0"/>
      <stop offset="30%" stop-color="#C9A84C" stop-opacity="1"/>
      <stop offset="70%" stop-color="#C9A84C" stop-opacity="1"/>
      <stop offset="100%" stop-color="#C9A84C" stop-opacity="0"/>
    </linearGradient>
  </defs>

  <rect width="1200" height="630" fill="#0d1f21"/>

  <g opacity="0.04" stroke="#C9A84C" stroke-width="1">
    <line x1="0" y1="105" x2="1200" y2="105"/>
    <line x1="0" y1="210" x2="1200" y2="210"/>
    <line x1="0" y1="315" x2="1200" y2="315"/>
    <line x1="0" y1="420" x2="1200" y2="420"/>
    <line x1="0" y1="525" x2="1200" y2="525"/>
    <line x1="200" y1="0" x2="200" y2="630"/>
    <line x1="400" y1="0" x2="400" y2="630"/>
    <line x1="600" y1="0" x2="600" y2="630"/>
    <line x1="800" y1="0" x2="800" y2="630"/>
    <line x1="1000" y1="0" x2="1000" y2="630"/>
  </g>

  <circle cx="80" cy="315" r="280" fill="none" stroke="#C9A84C" stroke-width="1" opacity="0.07"/>
  <circle cx="80" cy="315" r="200" fill="none" stroke="#C9A84C" stroke-width="1" opacity="0.05"/>
  <circle cx="1120" cy="315" r="280" fill="none" stroke="#C9A84C" stroke-width="1" opacity="0.07"/>
  <circle cx="1120" cy="315" r="200" fill="none" stroke="#C9A84C" stroke-width="1" opacity="0.05"/>

  <circle cx="600" cy="138" r="46" fill="#C9A84C" opacity="0.12"/>
  <circle cx="600" cy="138" r="34" fill="#C9A84C" opacity="0.2"/>
  <text x="600" y="150" text-anchor="middle" font-family="Georgia, serif" font-size="28" font-weight="700" fill="#C9A84C">€</text>

  <rect x="0" y="202" width="1200" height="1" fill="url(#goldLine)" opacity="0.25"/>

  <text x="600" y="280" text-anchor="middle" font-family="Georgia, serif" font-size="74" font-weight="700" fill="#ffffff">Calculette<tspan fill="#C9A84C">Immo</tspan></text>

  <text x="600" y="338" text-anchor="middle" font-family="Arial, sans-serif" font-size="22" fill="#94a3b8" letter-spacing="2">Tous vos outils de calcul immobilier</text>

  <rect x="500" y="366" width="200" height="2" rx="1" fill="#C9A84C" opacity="0.55"/>

  <rect x="118" y="400" width="190" height="36" rx="18" fill="#C9A84C" opacity="0.1"/>
  <rect x="118" y="400" width="190" height="36" rx="18" fill="none" stroke="#C9A84C" stroke-width="1" opacity="0.35"/>
  <text x="213" y="423" text-anchor="middle" font-family="Arial, sans-serif" font-size="14" font-weight="600" fill="#C9A84C">Mensualité</text>

  <rect x="326" y="400" width="222" height="36" rx="18" fill="#C9A84C" opacity="0.1"/>
  <rect x="326" y="400" width="222" height="36" rx="18" fill="none" stroke="#C9A84C" stroke-width="1" opacity="0.35"/>
  <text x="437" y="423" text-anchor="middle" font-family="Arial, sans-serif" font-size="14" font-weight="600" fill="#C9A84C">Capacité d'emprunt</text>

  <rect x="566" y="400" width="200" height="36" rx="18" fill="#C9A84C" opacity="0.1"/>
  <rect x="566" y="400" width="200" height="36" rx="18" fill="none" stroke="#C9A84C" stroke-width="1" opacity="0.35"/>
  <text x="666" y="423" text-anchor="middle" font-family="Arial, sans-serif" font-size="14" font-weight="600" fill="#C9A84C">Frais de notaire</text>

  <rect x="784" y="400" width="210" height="36" rx="18" fill="#C9A84C" opacity="0.1"/>
  <rect x="784" y="400" width="210" height="36" rx="18" fill="none" stroke="#C9A84C" stroke-width="1" opacity="0.35"/>
  <text x="889" y="423" text-anchor="middle" font-family="Arial, sans-serif" font-size="14" font-weight="600" fill="#C9A84C">Intérêts composés</text>

  <rect x="445" y="452" width="310" height="36" rx="18" fill="#C9A84C" opacity="0.16"/>
  <rect x="445" y="452" width="310" height="36" rx="18" fill="none" stroke="#C9A84C" stroke-width="1.5" opacity="0.55"/>
  <text x="600" y="475" text-anchor="middle" font-family="Arial, sans-serif" font-size="14" font-weight="600" fill="#C9A84C">Rentabilité locative</text>

  <rect x="0" y="530" width="1200" height="1" fill="url(#goldLine)" opacity="0.25"/>

  <text x="600" y="578" text-anchor="middle" font-family="Arial, sans-serif" font-size="17" fill="#475569" letter-spacing="3">calculetteimmo.com</text>
</svg>
